<svg
    xmlns="http://www.w3.org/2000/svg"
    viewBox="0 0 1333 1333"
    id="vector">
    <g
        id="background"
        transform="translate(666.66 666.66) scale(2 2) translate(-666.66 -666.66)">
        <path
            id="path"
            d="M 1199.07 666.67 C 1199.07 960.71 960.71 1199.07 666.67 1199.07 C 372.63 1199.07 134.27 960.71 134.27 666.67 C 134.27 372.63 372.63 134.27 666.67 134.27 C 960.71 134.27 1199.07 372.63 1199.07 666.67"
            fill="#e63946"
            stroke="#00000000"/>
    </g>
    <g id="crown">
        <path
            id="path_1"
            d="M 1028.27 890.67 L 305.06 890.67 C 301.75 890.67 299.06 887.98 299.06 884.67 C 299.06 881.36 301.75 878.67 305.06 878.67 L 1022.73 878.67 L 1055.34 461.8 L 817.96 599.34 C 815.09 601 811.42 600.02 809.76 597.15 C 808.1 594.28 809.08 590.61 811.94 588.95 L 1059.19 445.69 C 1061.12 444.57 1063.51 444.62 1065.4 445.8 C 1067.29 446.99 1068.36 449.12 1068.19 451.35 L 1034.26 885.14 C 1034.02 888.26 1031.41 890.67 1028.28 890.67"
            fill="#171717"
            stroke="#00000000"/>
        <path
            id="path_2"
            d="M 1028.27 890.67 L 305.06 890.67 C 301.93 890.67 299.32 888.26 299.08 885.14 L 265.15 451.36 C 264.98 449.14 266.05 447 267.94 445.81 C 269.83 444.62 272.22 444.58 274.14 445.7 L 745.99 719.09 C 748.86 720.75 749.83 724.42 748.17 727.29 C 746.51 730.16 742.84 731.13 739.97 729.47 L 278 461.8 L 310.61 878.67 L 1028.28 878.67 C 1031.59 878.67 1034.28 881.36 1034.28 884.67 C 1034.28 887.98 1031.59 890.67 1028.28 890.67"
            fill="#171717"
            stroke="#00000000"/>
        <path
            id="path_3"
            d="M 812.15 600.15 C 810.61 600.15 809.08 599.56 807.91 598.39 L 666.67 457.15 L 525.42 598.39 C 523.08 600.74 519.28 600.73 516.93 598.39 C 514.59 596.05 514.59 592.25 516.93 589.91 L 662.42 444.42 C 664.76 442.08 668.56 442.08 670.91 444.42 L 816.39 589.91 C 818.73 592.25 818.73 596.05 816.39 598.39 C 815.22 599.56 813.68 600.15 812.15 600.15"
            fill="#171717"
            stroke="#00000000"/>
        <path
            id="path_4"
            d="M 815.33 744.36 C 802.04 744.36 791.23 755.17 791.23 768.46 C 791.23 781.75 802.04 792.56 815.33 792.56 C 828.62 792.56 839.43 781.75 839.43 768.46 C 839.43 755.17 828.62 744.36 815.33 744.36 Z M 815.33 804.56 C 795.42 804.56 779.23 788.37 779.23 768.46 C 779.23 748.55 795.42 732.36 815.33 732.36 C 835.24 732.36 851.43 748.56 851.43 768.46 C 851.43 788.37 835.24 804.56 815.33 804.56"
            fill="#171717"
            stroke="#00000000"/>
    </g>
</svg>
